<svg width="156" height="36" viewBox="0 0 156 36" fill="none" xmlns="http://www.w3.org/2000/svg">
<g>
<path d="M26.9955 33.5942C26.6324 34.3732 25.7063 34.7098 24.9274 34.3468C24.6851 34.2336 24.4858 34.066 24.3364 33.8652L24.285 33.7912L20.2718 28.0601L18.1169 24.9828L16.5907 22.8015L16.5273 22.7109L16.0412 22.0165L9.65039 12.8895L24.5726 0.368307L24.5968 0.348683C25.0459 -0.0151266 25.6807 -0.114005 26.2384 0.146398C26.7993 0.408311 27.1314 0.960819 27.1389 1.54125V21.0451V22.298V24.1933V32.8387C27.1389 32.8447 27.1389 32.8515 27.1389 32.8583V33.0183V33.0229C27.1283 33.2153 27.0815 33.4078 26.9947 33.5935L26.9955 33.5942Z" fill="#fff"/>
</g>
<g>
<path d="M16.5275 22.7153C16.378 22.5168 16.1795 22.3515 15.938 22.239C15.7002 22.1281 15.4481 22.082 15.2028 22.0933H15.1945L15.1915 22.0941C15.1545 22.0956 15.1191 22.0986 15.0821 22.1039H15.0768L12.4328 22.3364L8.6905 22.6632L1.76151 23.2693H1.75774L1.63697 23.2799H1.63546C1.39166 23.2912 1.14183 23.2452 0.904821 23.1342C0.120592 22.7681 -0.21831 21.8375 0.147009 21.0525C0.230036 20.8751 0.340991 20.7204 0.473834 20.5921L0.476854 20.5898L0.65272 20.4419H0.653475L7.23903 14.9153L8.69125 13.6978L9.65135 12.8924L16.0422 22.0194L16.5283 22.7138L16.5275 22.7153Z" fill="#fff"/>
</g>
<path d="M17.179 30.4678C17.0877 30.6633 16.9616 30.8308 16.8114 30.9675L16.7488 31.0203L16.7442 31.0241L11.3052 35.5883L11.2041 35.6728C10.758 36.0193 10.1375 36.1099 9.59032 35.854C9.05442 35.6041 8.72608 35.0871 8.69287 34.5354V34.5248V34.4531V34.3519V27.2765V27.1943V27.1829V27.1784C8.70042 26.9761 8.74722 26.7723 8.83855 26.5768C9.068 26.0847 9.52239 25.7685 10.0228 25.6945H10.0258L10.2153 25.6771L13.5817 25.382L13.6579 25.376C13.9085 25.3601 14.1674 25.4054 14.4112 25.5186C14.655 25.6318 14.8557 25.8017 15.0044 26.004L15.0482 26.0658L16.9873 28.8344L16.9903 28.839L17.0967 28.9922L17.1043 29.0035C17.3624 29.4337 17.4085 29.9794 17.1813 30.4678H17.179Z" fill="#fff"/>
<path d="M59.3905 12.0234C58.4696 11.0626 57.3541 10.3229 56.0437 9.80209C54.7327 9.28204 53.2472 9.02164 51.5859 9.02164H42.4009V30.0335H51.5859C53.2465 30.0335 54.738 29.7739 56.0588 29.2531C57.3797 28.733 58.4953 28.0024 59.4056 27.0619C60.3159 26.1214 61.0118 25.0111 61.4918 23.7303C61.9719 22.4501 62.2119 21.0492 62.2119 19.5276C62.2119 18.0059 61.9719 16.6413 61.4918 15.3702C61.0118 14.0999 60.3106 12.9835 59.3905 12.0234ZM58.37 22.5294C58.05 23.4299 57.5843 24.2058 56.9744 24.8557C56.3638 25.5063 55.5939 26.0112 54.6632 26.3713C53.7326 26.7313 52.657 26.9117 51.4365 26.9117H45.6435V12.1435H51.4365C52.657 12.1435 53.7273 12.3239 54.6481 12.6839C55.5682 13.0439 56.3389 13.5542 56.9593 14.2146C57.579 14.875 58.05 15.6555 58.37 16.556C58.69 17.4564 58.8501 18.4467 58.8501 19.5276C58.8501 20.6084 58.69 21.6289 58.37 22.5294Z" fill="#fff"/>
<path d="M82.6691 21.2992C83.7198 20.6992 84.5599 19.8991 85.1909 18.8975C85.8212 17.8974 86.1367 16.8067 86.1367 15.6255C86.1367 14.3846 85.8363 13.2645 85.2362 12.2636C84.6361 11.2635 83.8255 10.4725 82.805 9.89206C81.7845 9.31163 80.6637 9.02179 79.4432 9.02179H69.1772V30.0337H72.4191V22.1989H78.157L83.165 30.0337L87.1571 30.0639L81.7513 21.7355C82.0661 21.614 82.3718 21.4683 82.6699 21.2985L82.6691 21.2992ZM72.4183 12.1436H78.7518C79.5119 12.1436 80.1972 12.2938 80.8078 12.5935C81.4177 12.8939 81.8985 13.3037 82.2487 13.8245C82.5989 14.3453 82.7741 14.9348 82.7741 15.5953C82.7741 16.2557 82.6186 16.821 82.3084 17.3509C81.9981 17.8815 81.5777 18.3019 81.0479 18.6114C80.5172 18.9216 79.9225 19.0764 79.262 19.0764H72.4183V12.1421V12.1436Z" fill="#fff"/>
<path d="M94.0303 12.1134H98.2631V26.9421H94.0303V30.0337H105.737V26.9421H101.505V12.1134H105.737V9.02179H94.0303V12.1134Z" fill="#fff"/>
<path d="M124.017 21.7196C123.736 22.4201 123.467 23.1153 123.206 23.8059C122.946 24.4965 122.696 25.1615 122.456 25.8023C122.39 25.9767 122.328 26.1465 122.267 26.3118C122.249 26.2665 122.233 26.2227 122.216 26.1774C122.036 25.7072 121.841 25.2166 121.631 24.7064C121.421 24.1961 121.205 23.6859 120.986 23.1756C120.765 22.6654 120.565 22.1703 120.386 21.6895L115.132 9.02179H111.44L120.355 30.0337H123.807L132.693 9.02179H128.88L124.017 21.7189V21.7196Z" fill="#fff"/>
<path d="M152.024 30.0337H155.536L146.621 9.02179H143.109L134.134 30.0337H137.465L139.648 24.9305H149.85L152.024 30.0337ZM140.982 21.8087L143.138 16.766C143.278 16.4059 143.439 16.0006 143.619 15.55C143.799 15.1001 143.983 14.6246 144.174 14.1242C144.364 13.6245 144.544 13.1339 144.714 12.6531C144.736 12.5942 144.755 12.5376 144.776 12.4802C144.78 12.4931 144.785 12.5052 144.789 12.518C144.97 13.0086 145.159 13.5234 145.36 14.0638C145.56 14.6042 145.745 15.1099 145.915 15.5794C146.085 16.0497 146.22 16.4052 146.321 16.6452L148.52 21.808H140.982V21.8087Z" fill="#fff"/>
</svg>
