<svg xmlns="http://www.w3.org/2000/svg" viewBox="0 0 158.153 19">
  <path fill="#fff" fill-rule="evenodd" d="M63.49337769 13.49221039v-.88434601H69.010437c0 1.10617828.11160278 1.46572113.5602417 1.74188995.53231812.33200455 1.14834595.38708878 5.15286255.38708878 6.1051941 0 6.1051941 0 6.1051941-1.63097382 0-1.10543441-.41998292-1.3823471-2.24014283-1.41063308l-4.4810791-.16526032-3.02432251-.13845825-1.5125122-.05508423c-4.62130738-.13845825-5.90914918-1.29971695-5.90914918-5.36412811 0-3.51132584 1.00808716-5.08721543 3.5845337-5.64030457C68.33862303.11091613 70.91506957 0 75.39535521 0c5.43338013 0 7.39379883.24863052 8.71029664 1.13371658 1.11968994.74663163 1.56832885 1.90789414 1.56832885 4.0919571 0 .11016845 0 .4980011-.02789306.85754394h-5.48916626c-.05654908-1.02354431-.1402588-1.27217483-.5602417-1.52080154-.47653198-.2769165-1.17623902-.33200455-5.20941162-.33200455-4.81658936 0-5.2086792.11091614-5.2086792 1.46572113 0 .69154358.25183105 1.05034637.83996582 1.18880081.50442505.13845825 2.0440979.22108841 5.9935913.33200455 6.16098023.19354248 7.36514283.33125687 8.5692749 1.07788467 1.28860474.82926178 1.76437379 2.0738945 1.76437379 4.64504242 0 3.20761109-.78414917 4.78350067-2.7166748 5.50259018-1.11968995.41835404-3.4721985.55755234-9.0458069.55755234-5.79681396 0-8.06561278-.24937058-9.38134765-1.08309937-1.28860473-.80171203-1.70858764-1.8803482-1.70858764-4.42469787zM89.79083252 1.27143097C91.21893311.19354248 92.95541382 0 100.76916504 0c7.8130188 0 9.54949951.19354248 10.9776001 1.27143097 1.428833 1.07937622 1.84881591 2.93143845 1.84881591 8.21219635 0 5.30904388-.4199829 7.16110992-1.84881591 8.23973846-1.42810059 1.0823555-3.19247437 1.27664185-10.92178345 1.27664185-7.86956787 0-9.60604858-.19428635-11.03414917-1.27664185-1.45672607-1.10617065-1.84881592-2.93069458-1.84881592-8.34990692 0-5.14304733.41998291-7.02265167 1.84881592-8.1020279zM0 .2769165l9.2463684 18.44171143h8.7095337L27.08618164.2769165h-6.21755981l-6.72119141 13.79666901h-1.09255981L6.24996948.27691651H0zm33.97476196 18.44171143h-5.9649353V.2769165h5.9649353v18.44171143zm22.0833435-1.56249237l.79776002 1.56249237h6.46936035L53.55105591.2769165h-8.84979248l-9.8902893 18.44171143h6.50180053c2.40377807-4.74702454 4.78115845-9.42333221 7.22564697-14.15621185h1.11968994c1.04129029 2.01508331 2.06069947 4.00709152 3.0725708 5.99909973l3.37191773-.00074387-2.5342102 1.65256119c.82940673 1.63916779 1.65655517 3.28279877 2.48971557 4.94280243zm87.81158448-12.1790924v13.74158477h5.96496582V4.97704315h8.31817627V.2769165H115.8357544v18.44171143h5.68518067v-6.38693237h10.63378906l2.72497559-4.23041535h-13.35876465V4.9666214l22.34875488.01042175zm-34.33972168-.23150636l-1.83825683 1.88853836c.15759277.6960106.21865844 1.73221207.21865844 3.37509919 0 2.23989486-.19604492 3.04161071-.83996582 3.53961181-.7562561.55234146-1.68066406.66251374-6.24542236.66251374-4.70501709 0-5.60076904-.08263016-6.35778809-.66251374-.67181396-.52554702-.83996582-1.27217483-.83996582-3.56715393 0-2.350811.18774414-3.3676567.44863892-4.03686905.70040893-1.80025482 6.46505737-1.51231384 10.95025635-1.28827667 1.8835144.09408188 3.54141235.17689133 4.50384521.0890503"/>
</svg>
